<svg width="16" height="16" viewBox="0 0 16 16" fill="none" xmlns="http://www.w3.org/2000/svg">
<path d="M13.765 8.26492L9.265 12.7649C9.19391 12.8312 9.09989 12.8672 9.00274 12.8655C8.90559 12.8638 8.8129 12.8244 8.74419 12.7557C8.67548 12.687 8.63613 12.5943 8.63441 12.4972C8.6327 12.4 8.66876 12.306 8.735 12.2349L12.5944 8.37492H2.5C2.40054 8.37492 2.30516 8.33541 2.23483 8.26509C2.16451 8.19476 2.125 8.09938 2.125 7.99992C2.125 7.90047 2.16451 7.80508 2.23483 7.73476C2.30516 7.66443 2.40054 7.62492 2.5 7.62492H12.5944L8.735 3.76492C8.66876 3.69384 8.6327 3.59981 8.63441 3.50266C8.63613 3.40551 8.67548 3.31282 8.74419 3.24411C8.8129 3.17541 8.90559 3.13605 9.00274 3.13434C9.09989 3.13262 9.19391 3.16868 9.265 3.23492L13.765 7.73492C13.8352 7.80524 13.8747 7.90055 13.8747 7.99992C13.8747 8.0993 13.8352 8.19461 13.765 8.26492Z" fill="black"/>
</svg>
