<svg width="17" height="17" viewBox="0 0 17 17" fill="none" xmlns="http://www.w3.org/2000/svg">
<path d="M8.49999 16.5C9.55075 16.5013 10.5914 16.2949 11.5622 15.8928C12.533 15.4907 13.4147 14.9007 14.1568 14.1568C14.9007 13.4147 15.4907 12.533 15.8928 11.5622C16.2949 10.5914 16.5013 9.55075 16.5 8.49999C16.5013 7.44923 16.2949 6.40857 15.8928 5.43779C15.4907 4.46702 14.9007 3.58527 14.1568 2.8432C13.4147 2.09927 12.533 1.50929 11.5622 1.10717C10.5914 0.70505 9.55075 0.49871 8.49999 0.500006C7.44923 0.49871 6.40857 0.70505 5.43779 1.10717C4.46702 1.50929 3.58527 2.09927 2.8432 2.8432C2.09927 3.58527 1.50929 4.46702 1.10717 5.43779C0.70505 6.40857 0.49871 7.44923 0.500006 8.49999C0.49871 9.55075 0.70505 10.5914 1.10717 11.5622C1.50929 12.533 2.09927 13.4147 2.8432 14.1568C3.58527 14.9007 4.46702 15.4907 5.43779 15.8928C6.40857 16.2949 7.44923 16.5013 8.49999 16.5Z" fill="#1D9E75" stroke="white" stroke-linejoin="round"/>
<path d="M5.2998 8.49961L7.6998 10.8996L12.4998 6.09961" fill="#1D9E75"/>
<path d="M5.2998 8.49961L7.6998 10.8996L12.4998 6.09961" stroke="white" stroke-linecap="round" stroke-linejoin="round"/>
</svg>
